<?xml version="1.0" encoding="UTF-8"?>
<svg width="12px" height="11px" viewBox="0 0 12 11" version="1.1" xmlns="http://www.w3.org/2000/svg" xmlns:xlink="http://www.w3.org/1999/xlink">
    <!-- Generator: Sketch 44.1 (41455) - http://www.bohemiancoding.com/sketch -->
    <title>High</title>
    <desc>Created with Sketch.</desc>
    <defs>
        <path d="M1.90943536,4.03876173 L0.111111111,4.03876173 L0.111111111,6.79657261 L1.90943536,6.79657261 L4.30720103,8.86493077 L5.00654935,8.86493077 L5.00654935,1.97040357 L4.30720103,1.97040357 L1.90943536,4.03876173 Z M6.55547176,4.32191254 L6.26825693,4.1252863 L6.6671537,3.55898467 L6.95436853,3.75561091 C7.07238551,3.83640491 7.23262356,3.98205851 7.3901942,4.19600085 C7.65151546,4.55081113 7.80923555,4.9772977 7.80923555,5.46982737 C7.80923555,5.91066728 7.70171035,6.30745623 7.5223943,6.6532704 C7.41298325,6.86427154 7.30055689,7.01506812 7.21718165,7.1024186 L6.97755318,7.35347232 L6.46823908,6.88099675 L6.70786755,6.62994302 C6.74875151,6.58710975 6.82271394,6.48790454 6.89969169,6.33945159 C7.03102363,6.08617562 7.10988723,5.79515358 7.10988723,5.46982737 C7.10988723,5.1322701 7.00336685,4.84423128 6.82428734,4.60108515 C6.71761751,4.45625365 6.61361509,4.36171725 6.55547176,4.32191254 Z M7.9541684,2.9430071 L7.66695357,2.74638086 L8.06585034,2.18007923 L8.35306517,2.37670547 C8.55482542,2.51482981 8.84067836,2.77466517 9.1238639,3.15916179 C9.59454332,3.79822919 9.87787831,4.56438756 9.87787831,5.45152479 C9.87787831,6.26146212 9.64426686,7.03601913 9.25662636,7.75036861 C9.02483284,8.17752104 8.79154381,8.49290289 8.62946972,8.67222694 L8.39684865,8.92960647 L7.87470133,8.47094738 L8.10732241,8.21356785 C8.13627184,8.18153726 8.19255207,8.11334644 8.26708616,8.01258432 C8.39385462,7.84120689 8.52113613,7.64414182 8.63997386,7.42514594 C8.97721341,6.80367604 9.17852999,6.13619522 9.17852999,5.45152479 C9.17852999,4.71935996 8.94639472,4.09164934 8.55795704,3.56424609 C8.42184578,3.37944032 8.27617088,3.22087442 8.13136451,3.08924794 C8.04709919,3.01265223 7.98444639,2.9637353 7.9541684,2.9430071 Z M9.32370249,1.19707283 L9.05911024,0.971696681 L9.5163321,0.45 L9.78092436,0.675376145 C9.85619641,0.739491875 9.98051926,0.857095257 10.1375363,1.02533975 C10.3959795,1.30226278 10.6537929,1.62382804 10.8944271,1.98741193 C11.5702577,3.00855172 11.9833532,4.15852749 12,5.42237028 C11.9834062,6.62133067 11.6179817,7.73008902 11.0208107,8.7229087 C10.8073329,9.07782363 10.5785127,9.39293674 10.3490534,9.66526891 C10.2094857,9.83091387 10.0988509,9.94718327 10.0316801,10.0109281 L9.77975905,10.25 L9.29475257,9.75328721 L9.54667358,9.51421533 C9.5958606,9.46753707 9.68885214,9.36980946 9.81108968,9.22473269 C10.0179725,8.97919532 10.2254943,8.69341255 10.4192692,8.37125447 C10.9580999,7.47542783 11.285939,6.48070978 11.3007141,5.4221767 C11.2859605,4.31040112 10.9169501,3.28314988 10.3087261,2.36415953 C10.0903076,2.03414222 9.85627895,1.74224319 9.62288,1.49215515 C9.4847918,1.34419301 9.37958833,1.24467564 9.32370249,1.19707283 Z" id="path-1"></path>
    </defs>
    <g id="Symbols" stroke="none" stroke-width="1" fill="none" fill-rule="evenodd">
        <g id="volume--high" fill="#000000">
            <g id="High">
                <use style="mix-blend-mode: overlay;" xlink:href="#path-1"></use>
                <use fill-opacity="0.75" style="mix-blend-mode: overlay;" xlink:href="#path-1"></use>
            </g>
        </g>
    </g>
</svg>